# xmcd
#
# Track frame offsets:
#	150
#	12827
#	30391
#	47480
#	65231
#	76347
#	88951
#	106194
#	122006
#	137739
#	153985
#	166594
#	183411
#
# Disc length: 2670 seconds
#
# Revision: 1
# Processed by: cddbd v1.5.2PL0 Copyright (c) Steve Scherf et al.
# Submitted via: audiograbber 1.83.01
#
DISCID=9c0a6c0d
DTITLE=Swamp Thing - Rumors and Lies
DYEAR=2017
DGENRE=Blues
TTITLE0=Last Fair Deal
TTITLE1=Rumors and Lies
TTITLE2=Good Woman
TTITLE3=Mr Bobblehead
TTITLE4=Boom Town
TTITLE5=In My Time Of Dying
TTITLE6=Mother's Work
TTITLE7=Mr Nelson
TTITLE8=It's Ok
TTITLE9=Baton Rouge
TTITLE10=Manzanita
TTITLE11=Let's Get Live
TTITLE12=Set You Free
EXTD=
EXTT0=
EXTT1=
EXTT2=
EXTT3=
EXTT4=
EXTT5=
EXTT6=
EXTT7=
EXTT8=
EXTT9=
EXTT10=
EXTT11=
EXTT12=
PLAYORDER=
